{"title":"Boy.Wonder.2010.DVDrip.XViD.AC3-5.1.SeT-CM8","uid":6867419,"size":1253949347,"categoryP":"video","categoryS":"movies","magnet":"?xt=urn:btih:7352e53bf92f1904f1bce60a91bb69d6f76cf807&amp;dn=Boy.Wonder.2010.DVDrip.XViD.AC3-5.1.SeT-CM8&amp;tr=udp%3A%2F%2Ftracker.openbittorrent.com%3A80&amp;tr=udp%3A%2F%2Fopen.demonii.com%3A1337&amp;tr=udp%3A%2F%2Ftracker.coppersurfer.tk%3A6969&amp;tr=udp%3A%2F%2Fexodus.desync.com%3A6969","seeders":0,"leechers":4,"uploader":"sceneline","files":88,"time":1323156493,"description":"- &lt;a href=&quot;\nhttp://www.Speed.Cd&quot; rel=&quot;nofollow&quot; target=&quot;_NEW&quot;&gt;\nhttp://www.Speed.Cd&lt;/a&gt;      fast  and The Hottest Private Tracker on the net\n\n   signup is open now\n\nPlease Seed back to make the speed Faster!!!\n\n------------------nfo--------------------------\n\n\n[color=red][size=6]Boy.Wonder.2010.DVDrip.XViD.AC3-5.1.SeT-CM8[/size][/color]\n\n\n[url]http://www.imdb.com/title/tt1456060/[/url]\n\n[color=red][size=4]\nA young Brooklyn boy witnesses the brutal murder of his mother and grows up obsessed with finding her killer. \nThus begins his life as a quiet, straight-A student by day and a self-appointed hero at night. But what is a\n real hero? And who decides what is right or wrong? As the boundaries blur, Sean's dual life wears on his \npsyche and his two worlds careen dangerously close to colliding. Like a graphic novel you can't put down, Boy \nWonder challenges morality, distorting perceptions of what is right and what is justified, as it races to its \nshocking conclusion. [/size][/color]\n\n\n\nSource - DVD \n\nCM8 Doing It Right The First Time :D\n\n\n\n\nFormat                           : AVI\nFormat/Info                      : Audio Video Interleave\nFile size                        : 1.19 GiB\nDuration                         : 1h 36mn\nOverall bit rate                 : 1 770 Kbps\nWriting library                  : VirtualDub build 30091/release\n\nVideo\nID                               : 0\nFormat                           : MPEG-4 Visual\nFormat profile                   : Advanced Simple@L5\nFormat settings, BVOP            : 2\nFormat settings, QPel            : No\nFormat settings, GMC             : No warppoints\nFormat settings, Matrix          : Default (H.263)\nCodec ID                         : XVID\nCodec ID/Hint                    : XviD\nDuration                         : 1h 36mn\nBit rate                         : 1 439 Kbps\nWidth                            : 720 pixels\nHeight                           : 304 pixels\nDisplay aspect ratio             : 2.35:1\nFrame rate                       : 29.970 fps\nColor space                      : YUV\nChroma subsampling               : 4:2:0\nBit depth                        : 8 bits\nScan type                        : Progressive\nCompression mode                 : Lossy\nBits/(Pixel*Frame)               : 0.219\nStream size                      : 992 MiB (81%)\nWriting library                  : XviD 1.2.1 (UTC 2008-12-04)\n\nAudio\nID                               : 1\nFormat                           : AC-3\nFormat/Info                      : Audio Coding 3\nMode extension                   : CM (complete main)\nCodec ID                         : 2000\nDuration                         : 1h 36mn\nBit rate mode                    : Constant\nBit rate                         : 320 Kbps\nChannel(s)                       : 6 channels\nChannel positions                : Front: L C R, Side: L R, LFE\nSampling rate                    : 48.0 KHz\nBit depth                        : 16 bits\nCompression mode                 : Lossy\nStream size                      : 221 MiB (18%)\nAlignment                        : Split accross interleaves\nInterleave, duration             : 33 ms (1.00 video frame)\nInterleave, preload duration     : 500 ms\n\n\n\nok, pretty much a straight rip, deinterlace cropped black bars, tweaked contrast and brightness just a tiny bit ;)\nother source would of been a headache reversing the problems it had. Enjoy ;)\n\n\n\n\nbig shout out to my Homies Mr Hive , Sir Unevano, Super TED and Mr Simmo.\nGreets to SAiNTS,DTRG,SANTi,BDK, THC,SAFC, SiC, AMIABLE and mSD for Super amazing work with there H264\nQuality compression\n all the other Ledgends out there Past and Present..","torrent":{"xt":"urn:btih:7352e53bf92f1904f1bce60a91bb69d6f76cf807","amp;dn":"Boy.Wonder.2010.DVDrip.XViD.AC3-5.1.SeT-CM8","amp;tr":["udp%3A%2F%2Ftracker.openbittorrent.com%3A80","udp%3A%2F%2Fopen.demonii.com%3A1337","udp%3A%2F%2Ftracker.coppersurfer.tk%3A6969","udp%3A%2F%2Fexodus.desync.com%3A6969"],"infoHash":"7352e53bf92f1904f1bce60a91bb69d6f76cf807","infoHashBuffer":{"type":"Buffer","data":[115,82,229,59,249,47,25,4,241,188,230,10,145,187,105,214,247,108,248,7]},"announce":[],"urlList":[]}}